<?xml version="1.0" encoding="utf-8"?>
<!-- Generator: Adobe Illustrator 23.0.3, SVG Export Plug-In . SVG Version: 6.00 Build 0)  -->
<svg version="1.1" id="Layer_1" xmlns="http://www.w3.org/2000/svg" xmlns:xlink="http://www.w3.org/1999/xlink" x="0px" y="0px"
	 viewBox="0 0 268 83" style="enable-background:new 0 0 268 83;" xml:space="preserve">
<style type="text/css">
	.st0{fill:#F15A24;}
	.st1{fill:#2E3192;}
</style>
<title>TruRepairs</title>
<g>
	
		<image style="overflow:visible;opacity:0.75;" width="271" height="85" xlink:href="69C1D20F.png"  transform="matrix(1 0 0 1 1.8116 2.4553)">
	</image>
	<g>
		<g>
			<g id="Layer_1-2_9_">
				<polygon class="st0" points="7.8,8.5 7.8,14.8 16.9,14.8 16.9,59.6 23.6,59.6 23.6,14.8 195.4,14.8 195.4,8.5 				"/>
				<path class="st0" d="M40.4,28.3v-5.2h-6.7v36.5h6.7v-23c-0.1-2.1,0.8-4.1,2.4-5.5c1.8-1.4,4.1-2.1,6.4-2h1.3v-6.6
					c-2.2,0-4.3,0.6-6.2,1.9C42.7,25.4,41.4,26.7,40.4,28.3z"/>
				<path class="st0" d="M71.1,49.5c0.1,1.1-0.3,2.2-1,3.1c-0.8,0.7-1.9,1.1-3.1,1c-1.1,0.1-2.2-0.3-3.1-1c-0.8-0.8-1.1-1.9-1.1-3
					V23.1h-6.7v26.8c0,3.3,0.7,5.9,2,7.6c1.5,1.8,3.8,2.8,6.1,2.6c1.6,0.1,3.3-0.5,4.5-1.5c1-0.9,1.8-2,2.3-3.3v4.3h6.7V23.1h-6.7
					V49.5z"/>
				<path class="st1" d="M104,40.9h0.1c1.8-0.7,3.3-1.8,4.4-3.4c1-1.6,1.6-3.4,1.5-5.3v-4.9c0.1-1.8-0.5-3.6-1.5-5.1
					c-1.1-1.5-2.7-2.6-4.4-3.2c-2.2-0.8-4.6-1.2-7-1.1h-12v41.7h6.7V42h5.3h0.4l12.5,32.5h150.1v-6.4H114.9L104,40.9z M91.8,23.1
					h5.9c1.1,0,2.1,0.2,3.1,0.6c0.8,0.3,1.5,0.9,2,1.7c0.5,0.8,0.7,1.7,0.7,2.6v4.2c0,0.9-0.2,1.7-0.7,2.5c-0.5,0.7-1.2,1.3-2,1.6
					c-1,0.4-2,0.6-3.1,0.5h-5.9V23.1z"/>
				<path class="st1" d="M121,58.7c1.8,1,3.9,1.5,6,1.4c3.4,0,6.1-0.9,8-2.7c1.9-1.8,2.8-4.4,2.8-7.8v-0.2h-6.4v0.2
					c0.1,1.2-0.3,2.3-1.1,3.2c-0.9,0.8-2,1.2-3.2,1.1c-1.3,0.1-2.6-0.5-3.5-1.5c-0.9-1.2-1.3-2.7-1.2-4.2V44h15.4v-9.6
					c0.1-2.2-0.4-4.4-1.3-6.4c-0.8-1.7-2.1-3.1-3.7-4c-1.8-1-3.9-1.5-5.9-1.4c-2-0.1-4.1,0.5-5.8,1.5c-1.7,1-3,2.6-3.7,4.4
					c-0.9,2.2-1.3,4.6-1.3,6.9v12.8c-0.1,2.3,0.4,4.5,1.3,6.5C118,56.3,119.4,57.8,121,58.7z M123.5,30.2c0.7-1.1,2-1.7,3.3-1.7
					c1.3-0.1,2.6,0.5,3.4,1.5c0.9,1.3,1.3,2.9,1.2,4.5v4h-9v-3.6C122.2,33.3,122.6,31.6,123.5,30.2z"/>
				<path class="st1" d="M151.5,55.3c0.5,1.2,1.3,2.3,2.2,3.2c1.2,1.1,2.9,1.7,4.5,1.7c1.6,0,3.2-0.4,4.6-1.4c1.3-1,2.3-2.4,2.9-4
					c0.7-2,1.1-4.2,1-6.4V34.1c0.1-2.1-0.2-4.3-0.9-6.3c-0.5-1.6-1.5-3-2.8-4c-1.3-0.9-2.9-1.4-4.5-1.3c-1.7,0-3.3,0.6-4.6,1.7
					c-1,0.9-1.9,2-2.5,3.3v-4.4h-6.7v43.1h6.7V55.3z M152,31.2c0.3-0.8,0.8-1.4,1.5-1.9c0.7-0.5,1.5-0.7,2.3-0.7
					c1.2,0,2.4,0.5,3.1,1.5c0.8,1.3,1.2,2.7,1.1,4.2v13.7c0.1,1.6-0.3,3.1-1.1,4.4c-0.7,1-1.9,1.6-3.1,1.5c-0.8,0-1.6-0.2-2.3-0.7
					c-0.7-0.5-1.2-1.2-1.5-2c-0.4-1-0.5-2.1-0.5-3.1v-14C151.5,33.2,151.7,32.2,152,31.2L152,31.2z"/>
				<path class="st1" d="M184.5,37.7c-3.8,0-6.6,1-8.5,3s-2.8,5.1-2.8,9.2c0,3.4,0.8,6,2.3,7.7s3.8,2.5,6.8,2.5
					c1.4,0.1,2.8-0.3,4.1-0.9c1.1-0.6,2-1.6,2.5-2.7l0.1-0.3v3.4h6.5V32.9c0.1-2-0.4-3.9-1.3-5.6c-0.8-1.5-2.1-2.8-3.7-3.6
					c-1.8-0.9-3.8-1.3-5.9-1.2c-3.4,0-6,0.9-7.8,2.7s-2.8,4.4-2.8,7.7h6.5c-0.1-1.2,0.3-2.4,1-3.4c0.7-0.8,1.8-1.3,2.9-1.2
					c1.2-0.1,2.4,0.3,3.3,1.2c0.8,0.9,1.3,2.2,1.2,3.4v4.8L184.5,37.7z M187.7,52.8c-1,1-2.3,1.5-3.7,1.4c-1.2,0.1-2.3-0.3-3.2-1.1
					c-0.8-0.9-1.2-2-1.1-3.2c-0.1-1.7,0.3-3.3,1.2-4.7c0.9-1.1,2.3-1.7,3.7-1.6h4.3v5C189,50.1,188.6,51.6,187.7,52.8z"/>
				<rect x="203.1" y="9" class="st1" width="6.7" height="6.7"/>
				<rect x="203.1" y="23.1" class="st1" width="6.7" height="36.5"/>
				<path class="st1" d="M224.1,36.6c-0.1-2.1,0.8-4.1,2.4-5.5c1.8-1.4,4.1-2.1,6.4-2h1.3v-6.7c-2.2,0-4.3,0.6-6.2,1.9
					c-1.5,1-2.9,2.4-3.9,4v-5.2h-6.7v36.5h6.7V36.6z"/>
				<path class="st1" d="M243.3,58.8c1.8,0.9,3.8,1.4,5.9,1.3c2,0.1,4.1-0.4,5.9-1.3c1.6-0.8,2.9-2.1,3.8-3.7
					c0.9-1.7,1.4-3.7,1.3-5.7c0.1-2.1-0.3-4.2-1.3-6c-0.7-1.3-1.8-2.4-3.2-3.2c-1.5-0.8-3.1-1.4-4.8-2c0,0-0.1,0-0.1,0
					c0,0-0.1,0-0.1,0h-0.2c-0.1,0-0.1,0-0.2,0c-0.9-0.3-1.9-0.7-2.8-1.1c-0.7-0.3-1.3-0.9-1.7-1.5c-0.5-0.7-0.7-1.6-0.7-2.5
					c-0.1-1.2,0.3-2.4,1-3.5c0.7-0.8,1.7-1.3,2.7-1.2c1-0.1,2,0.3,2.7,1c0.7,0.9,1.1,2,1,3.1v0.3h6.6v-0.2c0.1-1.9-0.4-3.8-1.2-5.5
					c-0.8-1.5-2-2.8-3.5-3.5c-1.7-0.8-3.6-1.3-5.6-1.2c-1.9,0-3.8,0.4-5.5,1.3c-1.5,0.8-2.8,2.1-3.6,3.7c-0.9,1.8-1.3,3.7-1.3,5.7
					c-0.1,1.9,0.3,3.8,1.2,5.4c0.7,1.3,1.8,2.4,3,3.2c1.4,0.8,2.9,1.5,4.4,2.1l0.2,0.1l0.2,0.1c0.1,0,0.2,0.1,0.3,0.1l0.3,0.1
					c1,0.4,2,0.8,3,1.3c0.7,0.4,1.3,0.9,1.7,1.5c0.5,0.7,0.7,1.6,0.7,2.4c0.1,1.3-0.4,2.5-1.2,3.5c-0.9,0.9-2,1.3-3.3,1.3
					c-1.2,0.1-2.4-0.4-3.3-1.3c-0.8-1.1-1.2-2.4-1.1-3.7v-0.3h-6.6v0.3c0,2,0.4,4,1.3,5.8C240.4,56.6,241.7,58,243.3,58.8z"/>
			</g>
		</g>
	</g>
</g>
</svg>
